<?xml version="1.0" encoding="utf-8"?>
<!-- Generated by IcoMoon.io -->
<!DOCTYPE svg PUBLIC "-//W3C//DTD SVG 1.1//EN" "http://www.w3.org/Graphics/SVG/1.1/DTD/svg11.dtd">
<svg version="1.1" xmlns="http://www.w3.org/2000/svg" xmlns:xlink="http://www.w3.org/1999/xlink" width="47" height="32" viewBox="0 0 47 32">
<path d="M24.649 3.469v-0.934h1.263v-0.613c-0-1.080 0.934-1.922 2.106-1.922s2.106 0.888 2.106 1.922v0.613h1.218v0.934h-6.692z" fill="#444444"></path>
<path d="M35.66 23.102c-2.435 0-4.449 1.968-4.449 4.449 0 2.435 2.014 4.449 4.449 4.449s4.449-2.014 4.449-4.449c0.008-2.435-2.006-4.449-4.449-4.449zM35.66 29.665c-1.172 0-2.106-0.934-2.106-2.106s0.934-2.106 2.106-2.106c1.172 0 2.106 0.934 2.106 2.106 0.008 1.172-0.934 2.106-2.106 2.106z" fill="#444444"></path>
<path d="M10.169 23.056c-2.435 0-4.449 2.014-4.449 4.449s2.014 4.449 4.449 4.449 4.449-1.968 4.449-4.449c0-2.435-1.968-4.449-4.449-4.449zM10.215 29.665c-1.172 0-2.106-0.934-2.106-2.106s0.934-2.106 2.106-2.106 2.113 0.934 2.113 2.106c0 1.126-0.942 2.106-2.113 2.106z" fill="#444444"></path>
<path d="M43.111 14.901c1.309 0.283 2.106 0.842 2.718 4.127l0.934 5.904c0.329 1.922-0.75 2.626-2.106 2.626h-3.277c0-3.185-2.581-5.812-5.766-5.812s-5.766 2.581-5.766 5.812h-13.913c0-3.185-2.581-5.812-5.766-5.812s-5.766 2.581-5.766 5.812h-2.718c-0.934 0-1.685-0.704-1.685-1.639v-19.45c0-1.080 0.842-1.922 1.876-1.922h34.956c1.309 0 2.297 0.659 2.764 1.83l3.515 8.523zM31.495 6.516v8.109h9.327l-3.285-8.109h-6.042zM23.102 13.592v-4.97h-4.97v4.97h-4.962v4.97h4.97v4.97h4.97v-4.97h4.97v-4.97h-4.977z" fill="#444444"></path>
</svg>
