<?xml version="1.0" encoding="utf-8"?>
<!-- Generated by IcoMoon.io -->
<!DOCTYPE svg PUBLIC "-//W3C//DTD SVG 1.1//EN" "http://www.w3.org/Graphics/SVG/1.1/DTD/svg11.dtd">
<svg version="1.1" xmlns="http://www.w3.org/2000/svg" xmlns:xlink="http://www.w3.org/1999/xlink" width="32" height="32" viewBox="0 0 32 32">
<path d="M32 16c0 8.837-7.163 16-16 16s-16-7.163-16-16c0-8.837 7.163-16 16-16s16 7.163 16 16z" fill="#444444"></path>
<path d="M16.581 10.359v-0.419h0.566v-0.272c0-0.482 0.419-0.864 0.943-0.864s0.943 0.398 0.943 0.864v0.272h0.545v0.419h-2.996z" fill="#444444"></path>
<path d="M21.52 19.169c-1.095 0-1.995 0.885-1.995 1.995 0 1.095 0.906 1.995 1.995 1.995 1.095 0 1.995-0.906 1.995-1.995 0.005-1.095-0.896-1.995-1.995-1.995zM21.52 22.112c-0.524 0-0.943-0.419-0.943-0.943s0.419-0.943 0.943-0.943c0.524 0 0.943 0.419 0.943 0.943 0.005 0.524-0.414 0.943-0.943 0.943z" fill="#444444"></path>
<path d="M10.087 19.148c-1.095 0-1.995 0.906-1.995 1.995 0 1.095 0.906 1.995 1.995 1.995s1.995-0.885 1.995-1.995c0-1.095-0.885-1.995-1.995-1.995zM10.108 22.112c-0.524 0-0.943-0.419-0.943-0.943s0.419-0.943 0.943-0.943c0.524 0 0.948 0.419 0.948 0.943 0 0.503-0.424 0.943-0.948 0.943z" fill="#444444"></path>
<path d="M24.867 15.487c0.587 0.126 0.943 0.377 1.22 1.854l0.419 2.65c0.147 0.864-0.335 1.178-0.943 1.178h-1.472c0-1.43-1.157-2.608-2.587-2.608s-2.587 1.157-2.587 2.608h-6.243c0-1.43-1.157-2.608-2.587-2.608s-2.587 1.157-2.587 2.608h-1.22c-0.419 0-0.754-0.314-0.754-0.733v-8.731c0-0.482 0.377-0.864 0.843-0.864h15.681c0.587 0 1.032 0.293 1.241 0.822l1.576 3.823zM19.65 11.726v3.64h4.185l-1.472-3.64h-2.713zM15.885 14.9v-2.231h-2.231v2.231h-2.226v2.231h2.231v2.231h2.231v-2.231h2.231v-2.231h-2.236z" fill="#444444"></path>
</svg>
