<?xml version="1.0" encoding="utf-8"?>
<!-- Generated by IcoMoon.io -->
<!DOCTYPE svg PUBLIC "-//W3C//DTD SVG 1.1//EN" "http://www.w3.org/Graphics/SVG/1.1/DTD/svg11.dtd">
<svg version="1.1" xmlns="http://www.w3.org/2000/svg" xmlns:xlink="http://www.w3.org/1999/xlink" width="32" height="32" viewBox="0 0 32 32">
<path d="M17.136 1.136l0.889 3.605c1.63 0.296 3.16 0.938 4.444 1.827l3.21-1.877 1.63 1.63-1.926 3.21c0.889 1.333 1.531 2.815 1.827 4.444l3.605 0.889v2.272l-3.605 0.889c-0.296 1.63-0.938 3.16-1.827 4.444l1.926 3.21-1.63 1.63-3.21-1.926c-1.333 0.889-2.815 1.531-4.444 1.827l-0.889 3.605h-2.272l-0.889-3.605c-1.63-0.296-3.161-0.938-4.444-1.827l-3.21 1.926-1.63-1.63 1.926-3.21c-0.889-1.333-1.531-2.815-1.827-4.444l-3.605-0.889v-2.272l3.605-0.889c0.296-1.63 0.938-3.161 1.827-4.444l-1.926-3.21 1.63-1.63 3.21 1.926c1.333-0.889 2.815-1.531 4.444-1.827l0.889-3.605h2.272zM16 24c4.395 0 8-3.605 8-8s-3.605-8-8-8-8 3.605-8 8 3.605 8 8 8zM17.136 0h-2.272c-0.543 0-0.988 0.346-1.086 0.889l-0.741 2.914c-1.235 0.296-2.42 0.79-3.556 1.481l-2.568-1.58c-0.198-0.099-0.395-0.148-0.593-0.148-0.296 0-0.593 0.099-0.79 0.346l-1.63 1.63c-0.395 0.346-0.444 0.889-0.198 1.383l1.531 2.568c-0.691 1.086-1.136 2.272-1.481 3.556l-2.914 0.741c-0.494 0.099-0.84 0.543-0.84 1.086v2.272c0 0.543 0.346 0.988 0.889 1.086l2.914 0.741c0.296 1.235 0.79 2.42 1.481 3.556l-1.531 2.568c-0.247 0.444-0.198 1.037 0.148 1.383l1.63 1.63c0.198 0.198 0.494 0.346 0.79 0.346 0.198 0 0.395-0.049 0.593-0.148l2.568-1.531c1.086 0.691 2.272 1.136 3.556 1.481l0.741 2.914c0.148 0.494 0.593 0.889 1.086 0.889h2.272c0.543 0 0.988-0.346 1.086-0.889l0.741-2.914c1.235-0.296 2.42-0.79 3.556-1.481l2.568 1.531c0.198 0.099 0.395 0.148 0.593 0.148 0.296 0 0.593-0.099 0.79-0.346l1.63-1.63c0.395-0.395 0.444-0.938 0.148-1.383l-1.531-2.568c0.691-1.086 1.136-2.272 1.481-3.556l2.914-0.741c0.494-0.148 0.889-0.593 0.889-1.086v-2.272c0-0.543-0.346-0.988-0.889-1.086l-2.914-0.741c-0.296-1.235-0.79-2.42-1.481-3.556l1.531-2.568c0.247-0.444 0.198-1.037-0.148-1.383l-1.63-1.63c-0.198-0.198-0.494-0.346-0.79-0.346-0.198 0-0.395 0.049-0.593 0.148l-2.568 1.531c-1.086-0.691-2.272-1.136-3.556-1.481l-0.691-2.864c-0.148-0.543-0.593-0.889-1.136-0.889v0zM16 22.864c-3.802 0-6.864-3.062-6.864-6.864s3.062-6.864 6.864-6.864 6.864 3.062 6.864 6.864-3.062 6.864-6.864 6.864v0z" fill="#444444"></path>
</svg>
