<?xml version="1.0" encoding="utf-8"?>
<!-- Generated by IcoMoon.io -->
<!DOCTYPE svg PUBLIC "-//W3C//DTD SVG 1.1//EN" "http://www.w3.org/Graphics/SVG/1.1/DTD/svg11.dtd">
<svg version="1.1" xmlns="http://www.w3.org/2000/svg" xmlns:xlink="http://www.w3.org/1999/xlink" width="32" height="32" viewBox="0 0 32 32">
<path d="M16 0c-8.853 0-16 7.147-16 16s7.147 16 16 16 16-7.147 16-16-7.147-16-16-16zM16 28.8c-7.040 0-12.8-5.76-12.8-12.8s5.76-12.8 12.8-12.8 12.8 5.76 12.8 12.8-5.76 12.8-12.8 12.8zM16.427 7.147h-0.853v2.347h0.853v-2.347zM14.293 9.493l-0.32-2.24-0.747 0.107 0.32 2.24 0.747-0.107zM10.88 7.893l0.64 2.24 0.747-0.213-0.64-2.24-0.747 0.213zM8.64 8.747l0.96 2.133 0.747-0.32-0.96-2.133-0.747 0.32zM6.507 9.92l1.28 1.92 0.64-0.427-1.28-1.92-0.64 0.427zM4.587 11.413l1.493 1.813 0.64-0.533-1.493-1.813-0.64 0.533zM17.707 9.493l0.747 0.107 0.32-2.24-0.747-0.107-0.32 2.24zM19.733 9.92l0.747 0.213 0.64-2.24-0.747-0.213-0.64 2.24zM21.76 10.56l0.747 0.32 0.96-2.133-0.747-0.32-0.96 2.133zM24.853 9.493l-1.28 1.92 0.64 0.427 1.28-1.92-0.64-0.427zM26.773 10.88l-1.493 1.813 0.64 0.533 1.493-1.813-0.64-0.533zM17.387 21.973c-0.427-0.213-0.853-11.52-1.387-11.52s-1.067 11.307-1.493 11.52c-0.747 0.427-1.173 1.28-1.173 2.24 0 1.493 1.173 2.667 2.667 2.667s2.667-1.173 2.667-2.667c0-0.853-0.533-1.707-1.28-2.24zM16 26.027c-0.96 0-1.707-0.747-1.707-1.707s0.747-1.707 1.707-1.707c0.96 0 1.707 0.747 1.707 1.707s-0.747 1.707-1.707 1.707z" fill="#444444"></path>
</svg>
