<?xml version="1.0" encoding="utf-8"?>
<!-- Generated by IcoMoon.io -->
<!DOCTYPE svg PUBLIC "-//W3C//DTD SVG 1.1//EN" "http://www.w3.org/Graphics/SVG/1.1/DTD/svg11.dtd">
<svg version="1.1" xmlns="http://www.w3.org/2000/svg" xmlns:xlink="http://www.w3.org/1999/xlink" width="22" height="32" viewBox="0 0 22 32">
<path d="M10.848 0c-5.984 0-10.848 4.864-10.848 10.848 0 0.128 0 0.256 0 0.384 0.032 1.152 0.256 2.24 0.608 3.264 2.336 7.584 10.24 17.504 10.24 17.504s7.904-9.92 10.208-17.504c0.352-1.024 0.576-2.112 0.608-3.264 0-0.128 0-0.256 0-0.384 0.032-5.984-4.832-10.848-10.816-10.848zM10.848 16.16c-2.944 0-5.312-2.368-5.312-5.312s2.368-5.312 5.312-5.312c2.944 0 5.312 2.368 5.312 5.312 0 2.912-2.368 5.312-5.312 5.312z" fill="#444444"></path>
</svg>
