<?xml version="1.0" encoding="utf-8"?>
<!-- Generated by IcoMoon.io -->
<!DOCTYPE svg PUBLIC "-//W3C//DTD SVG 1.1//EN" "http://www.w3.org/Graphics/SVG/1.1/DTD/svg11.dtd">
<svg version="1.1" xmlns="http://www.w3.org/2000/svg" xmlns:xlink="http://www.w3.org/1999/xlink" width="29" height="32" viewBox="0 0 29 32">
<path d="M24.825 17.397h2.222v-5.714h-2.222v-1.206c0-1.46-1.397-1.841-2.095-1.968v-2.159h-1.587v2.159h-1.27v-5.651h-1.778v1.27h-6.984v-1.27h-1.778v5.651h-1.397v-2.159h-1.587v2.159c-0.698 0.127-2.095 0.508-2.095 1.968v1.206h-2.222v5.714h2.222v8.063h-1.778v3.302h3.492v1.651c0 1.016 0.571 1.524 1.587 1.524s1.587-0.508 1.587-1.524v-1.651h10.794v1.651c0 1.016 0.571 1.587 1.524 1.587s1.651-0.571 1.651-1.587v-1.651h3.492v-3.302h-1.778l-0-8.064zM22.794 11.048v6.349h-7.429v-6.349h7.429zM11.175 5.079h6.984v1.27h-6.984v-1.27zM11.175 7.302h6.984v1.27h-6.984v-1.27zM6.413 11.048h7.429v6.349h-7.429v-6.349zM10.095 25.46h-3.746v-1.905h3.746v1.905zM17.841 25.46h-6.286v-5.206h6.286v5.206zM22.921 25.46h-3.746v-1.905h3.746v1.905z" fill="#444444"></path>
<path d="M7.175 4.889c-0.317 0-0.571-0.254-0.571-0.571s0.254-0.571 0.571-0.571c0.317 0 0.571 0.254 0.571 0.571s-0.254 0.571-0.571 0.571v0zM7.175 3.048c-0.317 0-0.571-0.254-0.571-0.571s0.254-0.571 0.571-0.571c0.317 0 0.571 0.254 0.571 0.571s-0.254 0.571-0.571 0.571v0zM7.175 1.143c-0.317 0-0.571-0.254-0.571-0.571s0.254-0.571 0.571-0.571c0.317 0 0.571 0.254 0.571 0.571s-0.254 0.571-0.571 0.571v0z" fill="#444444"></path>
<path d="M4.889 5.778c-0.127 0-0.317-0.063-0.381-0.127-0.127-0.127-0.127-0.254-0.127-0.381s0.063-0.317 0.127-0.381c0.19-0.19 0.571-0.19 0.825 0 0.19 0.254 0.19 0.571 0 0.825-0.127 0-0.254 0.063-0.444 0.063v0zM3.556 4.444c-0.127 0-0.317-0.063-0.381-0.19-0.254-0.19-0.254-0.571 0-0.825 0.19-0.19 0.571-0.19 0.825 0 0.127 0.127 0.127 0.254 0.127 0.381 0 0.19-0.063 0.317-0.127 0.381-0.127 0.19-0.254 0.254-0.444 0.254v0zM2.222 3.111c-0.127 0-0.317-0.063-0.381-0.19-0.127-0.127-0.19-0.254-0.19-0.381s0.063-0.317 0.19-0.381c0.19-0.19 0.571-0.19 0.825 0 0.19 0.254 0.19 0.571 0 0.825-0.127 0.064-0.254 0.127-0.444 0.127v0z" fill="#444444"></path>
<path d="M4.317 8.19c-0.317 0-0.571-0.254-0.571-0.571s0.254-0.571 0.571-0.571c0.317 0 0.571 0.254 0.571 0.571s-0.254 0.571-0.571 0.571v0zM2.476 8.19c-0.317 0-0.571-0.254-0.571-0.571s0.254-0.571 0.571-0.571 0.571 0.254 0.571 0.571c0 0.317-0.254 0.571-0.571 0.571v0zM0.571 8.19c-0.317 0-0.571-0.254-0.571-0.571s0.254-0.571 0.571-0.571 0.571 0.254 0.571 0.571c0 0.317-0.254 0.571-0.571 0.571v0z" fill="#444444"></path>
<path d="M22.032 4.889c-0.317 0-0.571-0.254-0.571-0.571s0.254-0.571 0.571-0.571c0.317 0 0.571 0.254 0.571 0.571s-0.254 0.571-0.571 0.571v0zM22.032 3.048c-0.317 0-0.571-0.254-0.571-0.571s0.254-0.571 0.571-0.571c0.317 0 0.571 0.254 0.571 0.571s-0.254 0.571-0.571 0.571v0zM22.032 1.143c-0.317 0-0.571-0.254-0.571-0.571s0.254-0.571 0.571-0.571c0.317 0 0.571 0.254 0.571 0.571s-0.254 0.571-0.571 0.571v0z" fill="#444444"></path>
<path d="M24.317 5.778c-0.127 0-0.317-0.063-0.381-0.127-0.127-0.127-0.19-0.254-0.19-0.381s0.063-0.317 0.19-0.381c0.19-0.19 0.571-0.19 0.825 0 0.19 0.254 0.19 0.571 0 0.825-0.19 0-0.317 0.064-0.444 0.064v0zM25.587 4.444c-0.127 0-0.317-0.063-0.381-0.19-0.19-0.19-0.19-0.571 0-0.825 0.19-0.19 0.571-0.19 0.825 0 0.19 0.19 0.19 0.571 0 0.825-0.127 0.127-0.254 0.19-0.444 0.19v0zM26.921 3.111c-0.127 0-0.317-0.063-0.381-0.19-0.19-0.19-0.19-0.571 0-0.825 0.254-0.19 0.571-0.19 0.825 0 0.127 0.127 0.19 0.254 0.19 0.381s-0.063 0.317-0.19 0.381c-0.127 0.19-0.254 0.254-0.444 0.254v0z" fill="#444444"></path>
<path d="M28.635 8.19c-0.317 0-0.571-0.254-0.571-0.571s0.254-0.571 0.571-0.571c0.317 0 0.571 0.254 0.571 0.571s-0.317 0.571-0.571 0.571v0zM26.73 8.19c-0.317 0-0.571-0.254-0.571-0.571s0.254-0.571 0.571-0.571c0.317 0 0.571 0.254 0.571 0.571s-0.254 0.571-0.571 0.571v0zM24.889 8.19c-0.317 0-0.571-0.254-0.571-0.571s0.254-0.571 0.571-0.571c0.317 0 0.571 0.254 0.571 0.571-0.064 0.317-0.317 0.571-0.571 0.571v0z" fill="#444444"></path>
</svg>
