<?xml version="1.0" encoding="utf-8"?>
<!-- Generated by IcoMoon.io -->
<!DOCTYPE svg PUBLIC "-//W3C//DTD SVG 1.1//EN" "http://www.w3.org/Graphics/SVG/1.1/DTD/svg11.dtd">
<svg version="1.1" xmlns="http://www.w3.org/2000/svg" xmlns:xlink="http://www.w3.org/1999/xlink" width="27" height="32" viewBox="0 0 27 32">
<path d="M25.028 15.965h2.44v-6.275h-2.44v-1.325c0-1.604-1.534-2.022-2.301-2.161v-2.37h-1.743v2.37h-1.394v-6.205h-1.952v1.394h-7.669v-1.394h-1.952v6.205h-1.534v-2.37h-1.743v2.37c-0.767 0.139-2.301 0.558-2.301 2.161v1.325h-2.44v6.275h2.44v8.854h-1.952v3.625h3.834v1.813c0 1.115 0.627 1.673 1.743 1.673s1.743-0.558 1.743-1.673v-1.813h11.852v1.813c0 1.115 0.627 1.743 1.673 1.743s1.813-0.627 1.813-1.743v-1.813h3.834v-3.625h-1.952l-0-8.854zM22.797 8.993v6.972h-8.157v-6.972h8.157zM10.039 2.44h7.669v1.394h-7.669v-1.394zM10.039 4.88h7.669v1.394h-7.669v-1.394zM4.81 8.993h8.157v6.972h-8.157v-6.972zM8.854 24.819h-4.113v-2.092h4.113v2.092zM17.359 24.819h-6.902v-5.717h6.902v5.717zM22.937 24.819h-4.113v-2.092h4.113v2.092z" fill="#444444"></path>
</svg>
