<?xml version="1.0" encoding="utf-8"?>
<!-- Generated by IcoMoon.io -->
<!DOCTYPE svg PUBLIC "-//W3C//DTD SVG 1.1//EN" "http://www.w3.org/Graphics/SVG/1.1/DTD/svg11.dtd">
<svg version="1.1" xmlns="http://www.w3.org/2000/svg" xmlns:xlink="http://www.w3.org/1999/xlink" width="20" height="32" viewBox="0 0 20 32">
<path d="M16 4.8v1.2c0 1.119-0.881 2-2 2h-8c-1.119 0-2-0.881-2-2v-1.2c-2.202 0-4 1.802-4 4v19.2c0 2.202 1.798 4 4 4h12c2.202 0 4-1.798 4-4v-19.2c0-2.198-1.798-4-4-4zM7.721 24.719c-0.198 0.202-0.44 0.279-0.719 0.279s-0.521-0.081-0.719-0.279l-3.519-3.519 1.402-1.398 2.84 2.84 8.76-8.76 1.398 1.398-9.442 9.438z" fill="#444444"></path>
<path d="M14 2.8h-1.2c0-1.56-1.24-2.8-2.8-2.8s-2.8 1.24-2.8 2.8h-1.2c-0.679 0-1.2 0.521-1.2 1.2v2c0 0.679 0.521 1.2 1.2 1.2h8c0.679 0 1.2-0.521 1.2-1.2v-2c0-0.679-0.521-1.2-1.2-1.2zM10 4.4c-0.881 0-1.6-0.719-1.6-1.6s0.719-1.6 1.6-1.6 1.6 0.719 1.6 1.6-0.719 1.6-1.6 1.6z" fill="#444444"></path>
</svg>
