<?xml version="1.0" encoding="utf-8"?>
<!-- Generated by IcoMoon.io -->
<!DOCTYPE svg PUBLIC "-//W3C//DTD SVG 1.1//EN" "http://www.w3.org/Graphics/SVG/1.1/DTD/svg11.dtd">
<svg version="1.1" xmlns="http://www.w3.org/2000/svg" xmlns:xlink="http://www.w3.org/1999/xlink" width="32" height="32" viewBox="0 0 32 32">
<path d="M7.574 0.301c-0.401 0.401-0.401 1.003 0 1.404l2.207 2.207-5.868 5.868-2.207-2.207c-0.401-0.401-1.003-0.401-1.404 0s-0.401 1.003 0 1.404l22.721 22.721c0.401 0.401 1.003 0.401 1.404 0s0.401-1.003 0-1.404l-2.207-2.207 5.868-5.868 2.207 2.207c0.401 0.401 1.003 0.401 1.404 0s0.401-1.003 0-1.404l-22.721-22.721c-0.351-0.401-1.003-0.401-1.404 0zM10.683 16.552l-1.956-1.956 5.868-5.868 1.956 1.956-5.868 5.868zM17.956 12.088l1.956 1.956-5.868 5.868-1.956-1.956 5.868-5.868zM15.448 21.317l5.868-5.868 1.956 1.956-5.868 5.868-1.956-1.956zM11.185 5.367l1.956 1.956-5.868 5.868-1.956-1.956c0.050-0.050 5.868-5.868 5.868-5.868zM20.815 26.633l-1.956-1.956 5.868-5.868 1.956 1.956-5.868 5.868z" fill="#444444"></path>
</svg>
