<?xml version="1.0" encoding="utf-8"?>
<!-- Generated by IcoMoon.io -->
<!DOCTYPE svg PUBLIC "-//W3C//DTD SVG 1.1//EN" "http://www.w3.org/Graphics/SVG/1.1/DTD/svg11.dtd">
<svg version="1.1" xmlns="http://www.w3.org/2000/svg" xmlns:xlink="http://www.w3.org/1999/xlink" width="34" height="32" viewBox="0 0 34 32">
<path d="M5.883 0.114c-0.947 0.172-2.841 0.689-2.841 2.669v1.636h-3.014v7.749h3.014v10.935h-2.411v4.477h4.736v2.239c0 1.378 0.775 2.067 2.153 2.067s2.153-0.689 2.153-2.067v-2.239h14.638v2.239c0 1.378 0.775 2.153 2.067 2.153s2.239-0.775 2.239-2.153v-2.239h4.736v-4.477h-2.411v-11.021h3.014v-7.749h-3.014v-1.636c0-1.98-1.894-2.497-2.841-2.669l-22.215 0.086zM28.098 3.472v8.61h-10.074v-8.61h10.074zM5.883 3.472h10.074v8.61h-10.074v-8.61zM10.877 23.018h-5.080v-2.583h5.080v2.583zM21.381 23.018h-8.524v-7.061h8.524v7.061zM28.27 23.018h-5.080v-2.583h5.080v2.583z" fill="#444444"></path>
</svg>
