<?xml version="1.0" encoding="utf-8"?>
<!-- Generated by IcoMoon.io -->
<!DOCTYPE svg PUBLIC "-//W3C//DTD SVG 1.1//EN" "http://www.w3.org/Graphics/SVG/1.1/DTD/svg11.dtd">
<svg version="1.1" xmlns="http://www.w3.org/2000/svg" xmlns:xlink="http://www.w3.org/1999/xlink" width="121" height="32" viewBox="0 0 121 32">
<path d="M64 0v32h30.769v-32h-30.769zM88.616 25.846h-18.462v-19.692h18.462v19.692z" fill="#444444"></path>
<path d="M73.846 9.846h11.077v12.308h-11.077v-12.308z" fill="#444444"></path>
<path d="M42.831 3.692l-6.277-3.692h-14.4v3.692h-22.154l1.231 12.308-1.231 12.308h22.154v3.692h14.769l6.154-3.692h13.538v-24.615h-13.785zM29.539 29.539h-4.923v-1.231l1.231-1.231v-22.154l-1.231-1.231v-1.231h4.923v27.077zM51.692 23.385h-6.154v-14.769h6.154v14.769z" fill="#444444"></path>
<path d="M120.616 3.692h-19.692l-2.462-2.462h-2.462v29.538h2.462l2.462-2.461h19.692l-1.231-12.308z" fill="#444444"></path>
</svg>
