<?xml version="1.0" encoding="utf-8"?>
<!-- Generated by IcoMoon.io -->
<!DOCTYPE svg PUBLIC "-//W3C//DTD SVG 1.1//EN" "http://www.w3.org/Graphics/SVG/1.1/DTD/svg11.dtd">
<svg version="1.1" xmlns="http://www.w3.org/2000/svg" xmlns:xlink="http://www.w3.org/1999/xlink" width="27" height="32" viewBox="0 0 27 32">
<path d="M15.357 6.401c0.979-0.676 1.507-1.732 1.507-2.863-0-1.958-1.581-3.538-3.538-3.538s-3.538 1.581-3.538 3.538c0 1.13 0.528 2.261 1.507 2.863v1.052c-4.37 2.109-5.899 3.109-6.427 12.221l11.541-11.693c-0.377-0.152-0.676-0.377-1.052-0.528v-1.052zM21.004 3.313l-4.595 4.669 1.957 1.204 4.218-4.292-1.581-1.581zM21.533 21.082c0.204-5.842-1.052-10.242-3.161-11.897l-10.844 10.918c1.806-0.45 3.763-0.676 5.721-0.676 2.711 0 6.024 0.827 8.285 1.654 0 0.754-0.303 2.031-0.377 2.261 0 0-5.271-1.507-7.83-1.507s-5.764 0.572-7.869 1.472l-0.065-0.030c0 0-0.42-1.143-0.498-2.048-0.074-1.13-0.022-1.559-0.022-1.559l-4.721 4.721c-0.074 0.074-0.074 0.074-0.152 0.152l1.659 1.507c1.052-1.13 2.261-2.031 3.763-2.711 0.602 2.334 1.732 5.045 3.465 8.28l0.225 0.377h3.69l-0.303-0.528c-2.637-4.66-2.867-6.392-2.637-7.072 0.676-0.074 2.785-0.152 3.538-0.152s2.863 0.152 3.538 0.152c0.225 0.676 0 2.408-2.637 7.076l-0.303 0.528h3.465l0.074-0.152c0.074-0.074 0.074-0.152 0.152-0.225 1.732-3.161 2.936-5.872 3.465-8.28 1.581 0.676 2.785 1.581 3.616 2.637l1.806-1.429c-1.126-1.433-2.936-2.637-5.041-3.469z" fill="#444444"></path>
</svg>
