<?xml version="1.0" encoding="utf-8"?>
<!-- Generated by IcoMoon.io -->
<!DOCTYPE svg PUBLIC "-//W3C//DTD SVG 1.1//EN" "http://www.w3.org/Graphics/SVG/1.1/DTD/svg11.dtd">
<svg version="1.1" xmlns="http://www.w3.org/2000/svg" xmlns:xlink="http://www.w3.org/1999/xlink" width="33" height="32" viewBox="0 0 33 32">
<path d="M1.332 2.337c0.957-0.273 1.948 0.308 2.187 1.264l6.937 26.109c0.239 0.957-0.308 1.948-1.264 2.221s-1.948-0.308-2.187-1.264l-6.937-26.109c-0.273-0.957 0.308-1.948 1.264-2.221z" fill="#444444"></path>
<path d="M5.125 4.422c0.478-0.786 4.784-7.45 12.2-2.768 7.45 4.682 12.269 8.031 15.481 2.426 0 0-0.786 4.545-2.187 6.937-1.367 2.392-5.673 5.707-11.004 4.306-4.921-1.299-8.578 0.718-10.047 5.16 0 0-4.101-14.832-4.443-16.062z" fill="#444444"></path>
</svg>
