<?xml version="1.0" encoding="utf-8"?>
<!-- Generated by IcoMoon.io -->
<!DOCTYPE svg PUBLIC "-//W3C//DTD SVG 1.1//EN" "http://www.w3.org/Graphics/SVG/1.1/DTD/svg11.dtd">
<svg version="1.1" xmlns="http://www.w3.org/2000/svg" xmlns:xlink="http://www.w3.org/1999/xlink" width="32" height="32" viewBox="0 0 32 32">
<path d="M13.546 17.008c0 1.345 1.109 2.454 2.454 2.454s2.454-1.109 2.454-2.454c-0.034-1.378-1.143-2.454-2.454-2.454-1.345 0-2.454 1.109-2.454 2.454z" fill="#444444"></path>
<path d="M16 0c-8.84 0-16 7.193-16 16-0.034 8.84 7.16 16 16 16s16-7.193 16-16c0-8.84-7.193-16-16-16zM28.471 14.958c0.034 0.336 0.034 0.706 0.034 1.076 0 3.133-1.157 5.968-3.044 8.179-0.928-1.072-1.426-2.408-1.426-3.977 0-1.916 1.747-3.983 4.435-5.294l0.002 0.016zM6.454 24.202c-1.916-2.185-3.059-5.076-3.059-8.202 0-0.336 0-0.706 0.034-1.042 0 0 0.067 0 0.067 0 0 0.062 0-0.062 0 0 2.655 1.277 4.403 3.361 4.403 5.277 0 1.546-0.471 2.891-1.412 3.966 0 0 0 0 0 0h-0.034zM8.572 26.151c-0.006-0.006-0.011-0.011-0.017-0.016 2.847-2.841 4.593-3.076 7.11-3.076 0.067 0 0.538 0 0.538 0 2.521 0 4.269 0.269 7.16 3.126 0 0 0 0 0 0-2.084 1.513-4.605 2.387-7.361 2.387-2.79 0-5.345-0.908-7.429-2.42zM4.059 12.093c1.669-4.97 6.355-8.597 11.907-8.597 5.57 0 10.302 3.584 11.957 8.612-1.878 1.437-3.389 0.967-5.604 0.262-1.613-0.504-3.597-1.076-6.319-1.076v0c-2.689 0-4.706 0.605-6.319 1.109-2.252 0.706-3.747 1.131-5.629-0.28zM19.429 16.975c0 1.916-1.546 3.462-3.462 3.462s-3.462-1.546-3.462-3.462c0-1.916 1.546-3.462 3.462-3.462s3.462 1.546 3.462 3.462z" fill="#444444"></path>
</svg>
