<?xml version="1.0" encoding="utf-8"?>
<!-- Generated by IcoMoon.io -->
<!DOCTYPE svg PUBLIC "-//W3C//DTD SVG 1.1//EN" "http://www.w3.org/Graphics/SVG/1.1/DTD/svg11.dtd">
<svg version="1.1" xmlns="http://www.w3.org/2000/svg" xmlns:xlink="http://www.w3.org/1999/xlink" width="32" height="32" viewBox="0 0 32 32">
<path d="M16.666 19.091l1.161 3.586c0.102 0.273 0.376 0.41 0.649 0.307 0 0 1.127-0.444 1.844-0.99s1.503-1.434 1.503-1.434c0.171-0.205 0.137-0.546-0.068-0.717l-3.074-2.22c-0.239-0.171-0.581-0.137-0.751 0.102 0 0-0.137 0.171-0.444 0.376-0.307 0.239-0.512 0.307-0.512 0.307-0.239 0.102-0.41 0.41-0.307 0.683zM10.006 20.559c0 0 0.785 0.922 1.503 1.434s1.844 0.99 1.844 0.99c0.273 0.102 0.546-0.034 0.649-0.307l1.161-3.586c0.102-0.273-0.068-0.581-0.342-0.683 0 0-0.205-0.068-0.512-0.307s-0.444-0.376-0.444-0.376c-0.171-0.239-0.512-0.273-0.751-0.102l-3.074 2.22c-0.171 0.171-0.205 0.512-0.034 0.717zM13.49 13.831l-3.074-2.22c-0.239-0.171-0.546-0.102-0.717 0.137 0 0-0.649 1.025-0.922 1.878s-0.376 2.049-0.376 2.049c-0.034 0.273 0.205 0.512 0.478 0.512h3.791c0.273 0 0.546-0.239 0.546-0.512 0 0 0-0.205 0.137-0.581 0.102-0.376 0.239-0.546 0.239-0.546 0.171-0.205 0.137-0.546-0.102-0.717zM18.339 9.358c0.102-0.273-0.068-0.546-0.342-0.615 0 0-1.161-0.273-2.083-0.273-0.888 0-2.083 0.273-2.083 0.273-0.273 0.068-0.444 0.342-0.342 0.615l1.161 3.586c0.102 0.273 0.376 0.444 0.683 0.376 0 0 0.205-0.068 0.581-0.068s0.581 0.068 0.581 0.068c0.273 0.068 0.581-0.102 0.683-0.376l1.161-3.586zM22.916 16.222c0.273 0 0.512-0.239 0.478-0.512 0 0-0.102-1.195-0.376-2.049s-0.922-1.878-0.922-1.878c-0.171-0.239-0.478-0.307-0.717-0.137l-3.074 2.22c-0.239 0.171-0.307 0.512-0.137 0.751 0 0 0.102 0.171 0.239 0.546s0.137 0.581 0.137 0.581c0 0.273 0.273 0.512 0.546 0.512l3.825-0.034zM23.121 21.106c-2.835 3.962-8.367 4.884-12.329 2.015-3.962-2.835-4.884-8.367-2.015-12.329 2.835-3.962 8.367-4.884 12.329-2.049 3.927 2.869 4.85 8.401 2.015 12.363zM31.966 15.266c-0.034-0.888-0.171-1.947-0.376-2.835 0 0-0.034-0.171-0.239-0.239-0.171-0.068-0.307-0.102-0.41-0.137-0.034-0.034-0.068-0.068-0.102-0.102 0-0.068 0-0.102 0.034-0.137v0c0.068-0.068 0.171-0.171 0.273-0.307 0 0 0.137-0.137 0.068-0.342-0.239-0.854-0.649-1.844-1.093-2.63 0 0-0.102-0.171-0.273-0.171-0.205 0-0.307-0.034-0.41-0.034-0.034 0-0.102-0.034-0.137-0.068s-0.034-0.102 0-0.171v0c0.034-0.102 0.102-0.205 0.205-0.376 0 0 0.102-0.171 0-0.342-0.444-0.751-1.127-1.605-1.742-2.254 0 0-0.137-0.137-0.307-0.102s-0.307 0.068-0.41 0.068c-0.034 0-0.102 0-0.137-0.034s-0.068-0.102-0.034-0.137v0c0.034-0.102 0.034-0.239 0.068-0.41 0 0 0.034-0.205-0.102-0.307-0.649-0.615-1.503-1.264-2.288-1.742 0 0-0.171-0.102-0.342 0-0.171 0.068-0.307 0.137-0.376 0.205-0.034 0.034-0.102 0.034-0.137 0s-0.068-0.068-0.068-0.137v0c0-0.102 0-0.239-0.034-0.41 0 0 0-0.205-0.171-0.273-0.785-0.41-1.776-0.82-2.664-1.093 0 0-0.171-0.068-0.342 0.068-0.137 0.137-0.239 0.205-0.307 0.273-0.034 0.034-0.102 0.034-0.137 0.034-0.068 0-0.102-0.068-0.102-0.102v0c-0.034-0.102-0.068-0.239-0.137-0.41 0 0-0.068-0.171-0.239-0.239-0.854-0.205-1.913-0.341-2.835-0.376 0 0 0 0-0.034 0-0.068 0-0.205 0.034-0.273 0.171-0.102 0.171-0.171 0.273-0.239 0.342-0.034 0.034-0.068 0.068-0.137 0.068s-0.102-0.034-0.137-0.068v0c-0.068-0.068-0.137-0.205-0.239-0.342 0 0-0.102-0.171-0.307-0.171-0.888 0.034-1.947 0.171-2.835 0.376 0 0-0.171 0.034-0.239 0.239-0.068 0.171-0.102 0.307-0.137 0.41-0.034 0.034-0.068 0.068-0.102 0.102-0.068 0-0.102 0-0.137-0.034v0l-0.034-0.034c-0.034 0-0.034-0.034-0.068-0.068s-0.034-0.034-0.068-0.068c-0.034 0-0.034-0.034-0.068-0.034-0.034-0.034-0.068-0.068-0.102-0.068 0 0-0.137-0.137-0.342-0.068-0.854 0.239-1.844 0.649-2.63 1.093 0 0-0.171 0.102-0.171 0.273 0 0.205-0.034 0.307-0.034 0.41 0 0.034-0.034 0.102-0.068 0.137s-0.068 0.034-0.102 0c-0.102-0.034-0.205-0.102-0.41-0.205-0.034-0.034-0.102-0.034-0.137-0.034-0.068 0-0.137 0-0.239 0.034-0.512 0.307-1.059 0.717-1.605 1.161-0.239 0.205-0.478 0.376-0.683 0.581-0.034 0.034-0.068 0.068-0.068 0.137-0.034 0.068-0.034 0.137-0.034 0.205 0.034 0.205 0.068 0.376 0.102 0.478 0 0.034-0.034 0.068-0.034 0.102-0.034 0.034-0.102 0.034-0.137 0.034-0.102-0.034-0.239-0.034-0.41-0.068-0.205-0.034-0.307 0.102-0.307 0.102-0.649 0.649-1.298 1.503-1.742 2.254-0.102 0.171 0 0.342 0 0.342 0.068 0.171 0.137 0.273 0.205 0.376v0c0.034 0.034 0.034 0.102 0 0.171-0.034 0.034-0.068 0.068-0.137 0.068-0.102 0-0.239 0-0.41 0.034-0.205 0-0.273 0.171-0.273 0.171-0.444 0.785-0.854 1.81-1.093 2.63-0.068 0.171 0.068 0.342 0.068 0.342 0.137 0.137 0.205 0.239 0.273 0.307v0c0.034 0.034 0.068 0.102 0.034 0.137 0 0.068-0.068 0.102-0.102 0.102-0.102 0.034-0.205 0.068-0.41 0.137-0.171 0.068-0.239 0.239-0.239 0.239-0.205 0.888-0.376 1.947-0.376 2.835 0 0.205 0.171 0.307 0.171 0.307 0.068 0.034 0.102 0.068 0.171 0.102 0.034 0 0.034 0.034 0.068 0.034 0.034 0.034 0.068 0.034 0.102 0.068 0 0 0.034 0 0.034 0.034v0c0.034 0.034 0.068 0.068 0.068 0.137s-0.034 0.102-0.068 0.137-0.205 0.137-0.342 0.239c-0.171 0.102-0.171 0.307-0.171 0.307 0 0.922 0.137 1.981 0.376 2.835 0.034 0.171 0.239 0.239 0.239 0.239 0.171 0.068 0.307 0.102 0.41 0.137v0c0.068 0 0.102 0.068 0.102 0.102 0 0.068 0 0.102-0.034 0.137-0.068 0.068-0.137 0.171-0.273 0.307s-0.068 0.342-0.068 0.342c0.239 0.888 0.649 1.878 1.093 2.664 0.102 0.171 0.273 0.171 0.273 0.171 0.171 0 0.307 0.034 0.41 0.034v0c0.068 0 0.102 0.034 0.137 0.068s0.034 0.102 0 0.137-0.102 0.205-0.171 0.376c-0.102 0.171 0 0.342 0 0.342 0.478 0.785 1.127 1.639 1.742 2.288 0.137 0.137 0.307 0.102 0.307 0.102 0.171-0.034 0.307-0.068 0.41-0.068v0c0.068 0 0.102 0 0.137 0.034s0.068 0.102 0.034 0.137c-0.034 0.102-0.034 0.239-0.068 0.41-0.034 0.205 0.102 0.307 0.102 0.307 0.649 0.649 1.503 1.298 2.254 1.742 0.171 0.102 0.342 0 0.342 0 0.171-0.068 0.273-0.137 0.376-0.205v0c0.034-0.034 0.102-0.034 0.171 0 0.034 0.034 0.068 0.068 0.068 0.137 0 0.102 0 0.239 0.034 0.41 0 0.205 0.171 0.273 0.171 0.273 0.785 0.444 1.81 0.854 2.63 1.093 0.171 0.068 0.342-0.068 0.342-0.068 0.137-0.137 0.239-0.205 0.307-0.273v0c0.034-0.034 0.102-0.068 0.137-0.034 0 0 0.034 0 0.034 0.034v0l0.034 0.034c0.034 0.102 0.068 0.239 0.137 0.444 0.068 0.171 0.239 0.239 0.239 0.239 0.888 0.205 1.981 0.376 2.835 0.376 0.034 0 0.034 0 0.068 0s0.034 0 0.034 0v0c0 0 0.034 0 0.034-0.034v0c0 0 0.034 0 0.034-0.034v0c0 0 0.034 0 0.034-0.034v0c0 0 0 0 0.034-0.034v0c0 0 0 0 0-0.034v0-0.034c0.034-0.034 0.068-0.068 0.068-0.102 0 0 0 0 0-0.034 0.068-0.102 0.137-0.171 0.171-0.239v0c0.034-0.034 0.068-0.034 0.102-0.034 0.068 0 0.102 0.034 0.137 0.068 0.068 0.068 0.137 0.205 0.239 0.342 0.102 0.171 0.307 0.171 0.307 0.171 0.922 0 1.981-0.137 2.835-0.376 0.171-0.034 0.239-0.239 0.239-0.239 0.068-0.171 0.102-0.307 0.137-0.41v0c0-0.068 0.068-0.102 0.102-0.102 0.068 0 0.102 0 0.137 0.034 0.068 0.068 0.171 0.137 0.307 0.273s0.342 0.068 0.342 0.068c0.888-0.239 1.878-0.649 2.664-1.093 0.171-0.102 0.171-0.273 0.171-0.273 0-0.171 0.034-0.307 0.034-0.41v0c0-0.068 0.034-0.102 0.068-0.137s0.102-0.034 0.137 0 0.205 0.102 0.376 0.205c0.034 0.034 0.102 0.034 0.137 0.034 0.068 0 0.137 0 0.239-0.034 0.512-0.307 1.059-0.717 1.605-1.161 0.239-0.205 0.478-0.41 0.683-0.581 0.034-0.034 0.068-0.068 0.068-0.137 0.034-0.068 0.034-0.137 0.034-0.205-0.034-0.171-0.068-0.307-0.068-0.41 0-0.034 0-0.102 0.034-0.137s0.102-0.068 0.137-0.034v0c0.102 0.034 0.239 0.034 0.41 0.068 0 0 0.205 0.034 0.307-0.102 0.615-0.649 1.264-1.503 1.742-2.288 0 0 0.102-0.171 0-0.342-0.068-0.171-0.137-0.307-0.171-0.376-0.034-0.034-0.034-0.102 0-0.137s0.068-0.068 0.137-0.068v0 0c0 0 0 0 0.034 0s0.068 0 0.102 0 0.171 0 0.273-0.034c0 0 0.205 0 0.273-0.171 0.41-0.785 0.82-1.776 1.093-2.664 0 0 0.068-0.171-0.068-0.342-0.137-0.137-0.205-0.239-0.273-0.307-0.034-0.034-0.034-0.102-0.034-0.137 0-0.068 0.068-0.102 0.102-0.102v0c0.102-0.034 0.239-0.068 0.41-0.137 0 0 0.171-0.068 0.239-0.239 0.205-0.854 0.342-1.913 0.376-2.835 0 0 0-0.205-0.171-0.307s-0.273-0.171-0.342-0.239c-0.034-0.034-0.068-0.068-0.068-0.137s0.034-0.102 0.068-0.137v0c0.068-0.068 0.205-0.137 0.342-0.239 0.069 0 0.205-0.102 0.205-0.307z" fill="#444444"></path>
</svg>
