<?xml version="1.0" encoding="utf-8"?>
<!-- Generated by IcoMoon.io -->
<!DOCTYPE svg PUBLIC "-//W3C//DTD SVG 1.1//EN" "http://www.w3.org/Graphics/SVG/1.1/DTD/svg11.dtd">
<svg version="1.1" xmlns="http://www.w3.org/2000/svg" xmlns:xlink="http://www.w3.org/1999/xlink" width="85" height="32" viewBox="0 0 85 32">
<path d="M69.3 0h-53.3c-9.1 0-16 6.9-16 16s6.9 16 16 16h53.3c9.1 0 16-6.9 16-16s-6.9-16-16-16zM33.4 20.7c-1.1 1.5-2.8 2.2-4.9 2.2-2 0-3.5-0.7-4.7-2-1-1.3-1.5-2.9-1.5-4.8 0-1.7 0.4-3.2 1.3-4.5 1.1-1.6 2.8-2.4 4.9-2.4 2.3 0 4 0.7 5.1 2.2 0.9 1.1 1.3 2.6 1.3 4.4 0 2-0.5 3.6-1.5 4.9zM47.1 22.6h-2l-6.5-10.4v10.4h-1.6v-12.9h2l6.4 10.4v-10.4h1.7v12.9zM69.3 26.7c-5.9 0-10.7-4.8-10.7-10.7s4.8-10.7 10.7-10.7c5.9 0 10.7 4.8 10.7 10.7s-4.8 10.7-10.7 10.7z" fill="#444444"></path>
<path d="M28.6 10.9c-1.3 0-2.4 0.5-3.3 1.4s-1.3 2.3-1.3 4.1c0 1.4 0.4 2.6 1.1 3.6s1.9 1.5 3.5 1.5c1.5 0 2.7-0.6 3.3-1.7s1-2.4 1-3.8c0-1.5-0.4-2.7-1.2-3.7s-1.7-1.4-3.1-1.4z" fill="#444444"></path>
</svg>
