<?xml version="1.0" encoding="utf-8"?>
<!-- Generated by IcoMoon.io -->
<!DOCTYPE svg PUBLIC "-//W3C//DTD SVG 1.1//EN" "http://www.w3.org/Graphics/SVG/1.1/DTD/svg11.dtd">
<svg version="1.1" xmlns="http://www.w3.org/2000/svg" xmlns:xlink="http://www.w3.org/1999/xlink" width="32" height="32" viewBox="0 0 32 32">
<path d="M31.491 29.569c0.339-0.339 0.396-1.527 0-1.922s-4.919-4.975-4.919-4.975l-0.961-0.961c0 0 0.396-1.583 0-1.922-0.339-0.396-0.622-0.622-0.622-0.622s-0.17-0.17-0.339-0.17c-0.113 0-0.283 0.057-0.452 0.226-0.452 0.396-1.527 1.527-1.527 1.527l-13.569-13.682-1.47-2.431-1.922-1.922-3.731-2.092-1.244 1.244 2.035 3.731 1.922 1.922 2.431 1.47 13.569 13.682c0 0-1.074 1.074-1.527 1.527s-0.057 0.791-0.057 0.791 0.226 0.226 0.622 0.622c0.113 0.113 0.396 0.17 0.678 0.17 0.565 0 1.244-0.17 1.244-0.17l0.961 0.961c0 0 4.523 4.58 4.919 4.975 0.17 0.17 0.565 0.283 0.961 0.283s0.791-0.113 0.961-0.283c0.339-0.339 0.961-0.961 0.961-0.961s0.678-0.679 1.074-1.018z" fill="#444444"></path>
<path d="M31.83 5.428l-3.845 3.845-4.24-0.905-0.905-4.24 3.845-3.845c-0.622-0.17-1.244-0.283-1.866-0.283-4.014 0-7.293 3.223-7.293 7.293 0 1.357 0.396 2.601 1.018 3.675l-1.64 1.64 2.883 2.883 1.696-1.696c1.018 0.509 2.092 0.848 3.336 0.848 4.014 0 7.293-3.223 7.293-7.293 0-0.678-0.113-1.3-0.283-1.922z" fill="#444444"></path>
<path d="M12.608 16.792l-1.64 1.64c-1.074-0.622-2.318-1.018-3.675-1.018-4.014 0-7.293 3.223-7.293 7.293 0 0.622 0.113 1.244 0.283 1.866l3.845-3.845 4.24 0.905 0.905 4.24-3.845 3.845c0.622 0.17 1.244 0.283 1.866 0.283 4.014 0 7.293-3.223 7.293-7.293 0-1.187-0.339-2.318-0.848-3.336l1.696-1.696-2.827-2.883z" fill="#444444"></path>
</svg>
