<?xml version="1.0" encoding="utf-8"?>
<!-- Generated by IcoMoon.io -->
<!DOCTYPE svg PUBLIC "-//W3C//DTD SVG 1.1//EN" "http://www.w3.org/Graphics/SVG/1.1/DTD/svg11.dtd">
<svg version="1.1" xmlns="http://www.w3.org/2000/svg" xmlns:xlink="http://www.w3.org/1999/xlink" width="11" height="32" viewBox="0 0 11 32">
<path d="M9.119 19.523v-4.634c0-0.388-0.315-0.723-0.723-0.723-0.388 0-0.723 0.315-0.723 0.723v4.634h-4.634v-4.634c0-0.388-0.315-0.723-0.723-0.723-0.388 0-0.723 0.315-0.723 0.723v4.634h-1.592v2.849c0 2.582 1.834 4.756 4.271 5.236v4.392h2.15v-4.392c2.436-0.505 4.271-2.655 4.271-5.236v-2.849c0.044 0-1.572 0-1.572 0z" fill="#444444"></path>
<path d="M10.735 12.477v-2.848c0-2.582-1.834-4.756-4.271-5.236v-4.392h-2.149v4.392c-2.436 0.505-4.271 2.655-4.271 5.236v2.848c10.448 0 0.073 0 10.691 0z" fill="#444444"></path>
</svg>
