<svg display="none" width="0" height="0" version="1.1" xmlns="http://www.w3.org/2000/svg" xmlns:xlink="http://www.w3.org/1999/xlink">
<defs>
<symbol id="icon-ambulance-o" viewBox="0 0 1024 1024">
	<title>ambulance-o</title>
	<path class="path1" d="M1024 512c0 282.77-229.23 512-512 512s-512-229.23-512-512c0-282.77 229.23-512 512-512s512 229.23 512 512z"></path>
	<path class="path2" d="M530.603 331.501v-13.408h18.1v-8.715c0-15.419 13.408-27.653 30.167-27.653s30.167 12.737 30.167 27.653v8.715h17.43v13.408h-95.864z"></path>
	<path class="path3" d="M688.644 613.394c-35.027 0-63.853 28.323-63.853 63.853 0 35.027 28.994 63.853 63.853 63.853 35.027 0 63.853-28.994 63.853-63.853 0.168-35.027-28.659-63.853-63.853-63.853zM688.644 707.582c-16.759 0-30.167-13.408-30.167-30.167s13.408-30.167 30.167-30.167c16.759 0 30.167 13.408 30.167 30.167 0.168 16.759-13.24 30.167-30.167 30.167z"></path>
	<path class="path4" d="M322.786 612.724c-35.027 0-63.853 28.994-63.853 63.853 0 35.027 28.994 63.853 63.853 63.853s63.853-28.323 63.853-63.853c0-35.027-28.323-63.853-63.853-63.853zM323.457 707.582c-16.759 0-30.167-13.408-30.167-30.167s13.408-30.167 30.167-30.167c16.759 0 30.335 13.408 30.335 30.167 0 16.089-13.575 30.167-30.335 30.167z"></path>
	<path class="path5" d="M795.737 495.576c18.771 4.022 30.167 12.067 39.049 59.328l13.408 84.803c4.693 27.653-10.726 37.709-30.167 37.709h-47.094c0-45.753-37.038-83.462-82.791-83.462s-82.791 37.038-82.791 83.462h-199.772c0-45.753-37.038-83.462-82.791-83.462s-82.791 37.038-82.791 83.462h-39.049c-13.408 0-24.134-10.056-24.134-23.463v-279.379c0-15.419 12.067-27.653 26.983-27.653h501.777c18.771 0 33.016 9.385 39.72 26.312l50.446 122.344zM628.813 375.243v116.478h133.908l-47.094-116.478h-86.814zM508.313 476.805v-71.395h-71.395v71.395h-71.227v71.395h71.395v71.395h71.395v-71.395h71.395v-71.395h-71.563z"></path>
</symbol>
<symbol id="icon-ambulance" viewBox="0 0 1498 1024">
	<title>ambulance</title>
	<path class="path1" d="M788.768 111.002v-29.894h40.431v-19.602c-0.002-34.552 29.892-61.505 67.382-61.505s67.385 28.425 67.385 61.503v19.602h38.96v29.897h-214.158z"></path>
	<path class="path2" d="M1141.128 739.269c-77.922 0-142.365 62.974-142.365 142.365 0 77.922 64.444 142.365 142.365 142.365s142.365-64.444 142.365-142.365c0.245-77.919-64.201-142.365-142.365-142.365zM1141.128 949.264c-37.49 0-67.385-29.894-67.385-67.385s29.894-67.385 67.385-67.385c37.49 0 67.385 29.894 67.385 67.385 0.245 37.49-29.894 67.385-67.385 67.385z"></path>
	<path class="path3" d="M325.407 737.8c-77.922 0-142.365 64.444-142.365 142.365s64.444 142.365 142.365 142.365 142.365-62.974 142.365-142.365c0-77.922-62.974-142.365-142.365-142.365zM326.876 949.264c-37.49 0-67.385-29.894-67.385-67.385s29.894-67.385 67.385-67.385 67.63 29.894 67.63 67.385c0 36.021-30.139 67.385-67.63 67.385z"></path>
	<path class="path4" d="M1379.546 476.837c41.901 9.065 67.385 26.953 86.987 132.073l29.894 188.921c10.537 61.503-24.012 84.046-67.385 84.046h-104.875c0-101.934-82.577-185.982-184.511-185.982s-184.511 82.577-184.511 185.982h-445.229c0-101.934-82.577-185.982-184.511-185.982s-184.511 82.577-184.511 185.982h-86.989c-29.894 0.002-53.907-22.541-53.907-52.435v-622.388c0-34.549 26.953-61.503 60.033-61.503h1118.585c41.901 0 73.511 21.074 88.459 58.564l112.469 272.722zM1007.828 208.526v259.491h298.453l-105.12-259.491h-193.333zM739.269 434.937v-159.027h-159.027v159.027h-158.782v159.027h159.027v159.027h159.027v-159.027h159.027v-159.027h-159.271z"></path>
</symbol>
<symbol id="icon-cog" viewBox="0 0 1024 1024">
	<title>cog</title>
	<path class="path1" d="M548.346 36.346l28.444 115.358c52.148 9.481 101.136 30.025 142.222 58.469l102.716-60.049 52.148 52.148-61.63 102.716c28.444 42.667 48.988 90.074 58.469 142.222l115.358 28.444v72.691l-115.358 28.444c-9.481 52.148-30.025 101.136-58.469 142.222l61.63 102.716-52.148 52.148-102.716-61.63c-42.667 28.444-90.074 48.988-142.222 58.469l-28.444 115.358h-72.691l-28.444-115.358c-52.148-9.481-101.136-30.025-142.222-58.469l-102.716 61.63-52.148-52.148 61.63-102.716c-28.444-42.667-48.988-90.074-58.469-142.222l-115.358-28.444v-72.691l115.358-28.444c9.481-52.148 30.025-101.136 58.469-142.222l-61.63-102.716 52.148-52.148 102.716 61.63c42.667-28.444 90.074-48.988 142.222-58.469l28.444-115.358h72.691zM512 768c140.642 0 256-115.358 256-256s-115.358-256-256-256-256 115.358-256 256 115.358 256 256 256zM548.346 0h-72.691c-17.383 0-31.605 11.062-34.765 28.444l-23.704 93.235c-39.506 9.481-77.432 25.284-113.778 47.407l-82.173-50.568c-6.321-3.16-12.642-4.741-18.963-4.741-9.481 0-18.963 3.16-25.284 11.062l-52.148 52.148c-12.642 11.062-14.222 28.444-6.321 44.247l48.988 82.173c-22.123 34.765-36.346 72.691-47.407 113.778l-93.235 23.704c-15.802 3.16-26.864 17.383-26.864 34.765v72.691c0 17.383 11.062 31.605 28.444 34.765l93.235 23.704c9.481 39.506 25.284 77.432 47.407 113.778l-48.988 82.173c-7.901 14.222-6.321 33.185 4.741 44.247l52.148 52.148c6.321 6.321 15.802 11.062 25.284 11.062 6.321 0 12.642-1.58 18.963-4.741l82.173-48.988c34.765 22.123 72.691 36.346 113.778 47.407l23.704 93.235c4.741 15.802 18.963 28.444 34.765 28.444h72.691c17.383 0 31.605-11.062 34.765-28.444l23.704-93.235c39.506-9.481 77.432-25.284 113.778-47.407l82.173 48.988c6.321 3.16 12.642 4.741 18.963 4.741 9.481 0 18.963-3.16 25.284-11.062l52.148-52.148c12.642-12.642 14.222-30.025 4.741-44.247l-48.988-82.173c22.123-34.765 36.346-72.691 47.407-113.778l93.235-23.704c15.802-4.741 28.444-18.963 28.444-34.765v-72.691c0-17.383-11.062-31.605-28.444-34.765l-93.235-23.704c-9.481-39.506-25.284-77.432-47.407-113.778l48.988-82.173c7.901-14.222 6.321-33.185-4.741-44.247l-52.148-52.148c-6.321-6.321-15.802-11.062-25.284-11.062-6.321 0-12.642 1.58-18.963 4.741l-82.173 48.988c-34.765-22.123-72.691-36.346-113.778-47.407l-22.123-91.654c-4.741-17.383-18.963-28.444-36.346-28.444v0zM512 731.654c-121.679 0-219.654-97.975-219.654-219.654s97.975-219.654 219.654-219.654 219.654 97.975 219.654 219.654-97.975 219.654-219.654 219.654v0z"></path>
</symbol>
<symbol id="icon-dashboard" viewBox="0 0 1024 1024">
	<title>dashboard</title>
	<path class="path1" d="M511.999 0c-283.306 0-511.999 228.693-511.999 511.999s228.693 511.999 511.999 511.999 511.999-228.693 511.999-511.999-228.692-511.999-511.999-511.999zM511.999 921.599c-225.28 0-409.6-184.32-409.6-409.6s184.322-409.599 409.6-409.599 409.6 184.32 409.6 409.599-184.32 409.6-409.6 409.6zM525.653 228.693h-27.307v75.093h27.307v-75.093zM457.387 303.787l-10.239-71.681-23.894 3.413 10.239 71.681 23.894-3.413zM348.16 252.586l20.479 71.681 23.894-6.828-20.479-71.681-23.894 6.828zM276.48 279.894l30.72 68.266 23.894-10.239-30.72-68.266-23.894 10.239zM208.214 317.439l40.961 61.44 20.479-13.654-40.961-61.44-20.479 13.654zM146.772 365.227l47.786 58.027 20.479-17.066-47.786-58.027-20.479 17.066zM566.613 303.787l23.894 3.413 10.239-71.681-23.894-3.413-10.239 71.681zM631.466 317.439l23.894 6.828 20.479-71.681-23.894-6.828-20.479 71.681zM696.319 337.92l23.894 10.239 30.72-68.266-23.894-10.239-30.72 68.266zM795.307 303.787l-40.961 61.44 20.479 13.654 40.961-61.44-20.479-13.654zM856.747 348.16l-47.786 58.027 20.479 17.066 47.786-58.027-20.479-17.066zM556.373 703.147c-13.654-6.828-27.307-368.64-44.373-368.64s-34.133 361.814-47.786 368.64c-23.894 13.654-37.548 40.961-37.548 71.681 0 47.786 37.548 85.334 85.334 85.334s85.334-37.548 85.334-85.334c0-27.307-17.066-54.614-40.961-71.681zM511.999 832.853c-30.72 0-54.614-23.894-54.614-54.614s23.894-54.614 54.614-54.614c30.72 0 54.614 23.894 54.614 54.614s-23.894 54.614-54.614 54.614z"></path>
</symbol>
<symbol id="icon-destination" viewBox="0 0 693 1024">
	<title>destination</title>
	<path class="path1" d="M347.136 0c-191.488 0-347.136 155.648-347.136 347.136 0 4.096 0 8.192 0 12.288 1.024 36.864 8.192 71.68 19.456 104.448 74.752 242.688 327.68 560.128 327.68 560.128s252.928-317.44 326.656-560.128c11.264-32.768 18.432-67.584 19.456-104.448 0-4.096 0-8.192 0-12.288 1.024-191.488-154.624-347.136-346.112-347.136zM347.136 517.12c-94.208 0-169.984-75.776-169.984-169.984s75.776-169.984 169.984-169.984c94.208 0 169.984 75.776 169.984 169.984 0 93.184-75.776 169.984-169.984 169.984z"></path>
</symbol>
<symbol id="icon-engine" viewBox="0 0 1467 1024">
	<title>engine</title>
	<path class="path1" d="M1398.965 361.412h-121.976v134.024h-90.352l-183.72-301.178h-277.082v-105.41h198.775v-88.847h-518.021v88.847h200.283v105.413h-245.459l-129.506 140.046h-81.317v161.129h-66.259v-195.765h-84.33v518.024h84.33v-177.695h66.259v111.435h84.33l245.459 272.565h722.824v-150.589h75.295v150.589h121.976c0 0 66.259-16.565 66.259-331.294-1.507 0 4.515-331.294-67.767-331.294z"></path>
</symbol>
<symbol id="icon-exclamation-o" viewBox="0 0 1024 1024">
	<title>exclamation-o</title>
	<path class="path1" d="M512 0c-282.771 0-512 229.229-512 512s229.229 512 512 512 512-229.229 512-512-229.229-512-512-512zM552.492 800.627h-81.318v-84.999h81.318v84.999zM554.165 397.888l-20.078 259.848h-41.663l-21.25-259.848v-197.271h82.991v197.271z"></path>
</symbol>
<symbol id="icon-fault" viewBox="0 0 1024 1024">
	<title>fault</title>
	<path class="path1" d="M512 0c-281.6 0-512 230.4-512 512s230.4 512 512 512 512-230.4 512-512-230.4-512-512-512zM352 284.799l160 160 160-160 67.201 67.201-160 160 160 160-67.201 67.201-160-160-160 160-67.201-67.201 160-160-160-160 67.201-67.201z"></path>
</symbol>
<symbol id="icon-firetruck-siren-off" viewBox="0 0 879 1024">
	<title>firetruck-siren-off</title>
	<path class="path1" d="M800.905 510.885h78.083v-200.785h-78.083v-42.388c0-51.312-49.081-64.697-73.62-69.159v-75.851h-55.773v75.851h-44.619v-198.553h-62.466v44.619h-245.403v-44.619h-62.466v198.553h-49.081v-75.851h-55.773v75.851c-24.541 4.463-73.62 17.847-73.62 69.159v42.388h-78.083v200.785h78.083v283.329h-62.466v116.009h122.702v58.005c0 35.695 20.078 53.542 55.773 53.542s55.773-17.847 55.773-53.542v-58.005h379.259v58.005c0 35.695 20.078 55.773 53.542 55.773s58.005-20.078 58.005-55.773v-58.005h122.702v-116.009h-62.466l-0.001-283.329zM729.515 287.79v223.093h-261.019v-223.093h261.019zM321.254 78.083h245.403v44.619h-245.403v-44.619zM321.254 156.166h245.403v44.619h-245.403v-44.619zM153.934 287.79h261.019v223.093h-261.019v-223.093zM283.329 794.214h-131.625v-66.929h131.625v66.929zM555.503 794.214h-220.863v-182.937h220.863v182.937zM733.978 794.214h-131.625v-66.929h131.625v66.929z"></path>
</symbol>
<symbol id="icon-firetruck-siren-on" viewBox="0 0 935 1024">
	<title>firetruck-siren-on</title>
	<path class="path1" d="M794.412 556.698h71.112v-182.857h-71.112v-38.603c0-46.731-44.698-58.921-67.048-62.984v-69.079h-50.793v69.079h-40.635v-180.826h-56.888v40.635h-223.493v-40.635h-56.888v180.826h-44.698v-69.079h-50.793v69.079c-22.35 4.064-67.048 16.254-67.048 62.984v38.603h-71.112v182.857h71.112v258.031h-56.89v105.652h111.746v52.826c0 32.507 18.286 48.762 50.793 48.762s50.795-16.254 50.795-48.762v-52.826h345.397v52.826c0 32.507 18.286 50.793 48.762 50.793s52.826-18.286 52.826-50.793v-52.826h111.746v-105.65h-56.888l-0.002-258.033zM729.397 353.524v203.174h-237.714v-203.174h237.714zM357.588 162.54h223.493v40.635h-223.493v-40.635zM357.588 233.65h223.493v40.635h-223.493v-40.635zM205.207 353.524h237.714v203.174h-237.714v-203.174zM323.048 814.731h-119.874v-60.952h119.874v60.952zM570.921 814.731h-201.143v-166.604h201.143v166.604zM733.46 814.731h-119.874v-60.952h119.874v60.952z"></path>
	<path class="path2" d="M229.588 156.443c-10.159 0-18.286-8.126-18.286-18.286s8.126-18.286 18.286-18.286c10.159 0 18.286 8.126 18.286 18.286s-8.128 18.286-18.286 18.286v0zM229.588 97.524c-10.159 0-18.286-8.126-18.286-18.286s8.126-18.286 18.286-18.286c10.159 0 18.286 8.126 18.286 18.286s-8.128 18.286-18.286 18.286v0zM229.588 36.571c-10.159 0-18.286-8.126-18.286-18.286s8.126-18.286 18.286-18.286c10.159 0 18.286 8.126 18.286 18.286s-8.128 18.286-18.286 18.286v0z"></path>
	<path class="path3" d="M156.445 184.888c-4.064 0-10.159-2.031-12.19-4.064-4.064-4.062-4.064-8.126-4.064-12.189 0-4.064 2.031-10.159 4.064-12.19 6.095-6.095 18.286-6.095 26.412 0 6.095 8.126 6.095 18.286 0 26.412-4.064 0-8.126 2.031-14.222 2.031v0zM113.778 142.222c-4.064 0-10.159-2.031-12.19-6.095-8.126-6.095-8.126-18.286 0-26.412 6.095-6.095 18.286-6.095 26.412 0 4.064 4.064 4.064 8.126 4.064 12.19 0 6.095-2.031 10.159-4.064 12.19-4.064 6.095-8.126 8.126-14.222 8.126v0zM71.112 99.555c-4.064 0-10.159-2.031-12.19-6.095-4.064-4.064-6.095-8.126-6.095-12.19s2.031-10.159 6.095-12.19c6.095-6.095 18.286-6.095 26.412 0 6.095 8.126 6.095 18.286 0 26.412-4.064 2.033-8.126 4.064-14.222 4.064v0z"></path>
	<path class="path4" d="M138.159 262.095c-10.159 0-18.286-8.126-18.286-18.286s8.126-18.286 18.286-18.286c10.159 0 18.286 8.126 18.286 18.286s-8.128 18.286-18.286 18.286v0zM79.238 262.095c-10.159 0-18.286-8.126-18.286-18.286s8.126-18.286 18.286-18.286 18.286 8.126 18.286 18.286c0 10.159-8.126 18.286-18.286 18.286v0zM18.286 262.095c-10.159 0-18.286-8.126-18.286-18.286s8.126-18.286 18.286-18.286 18.286 8.126 18.286 18.286c0 10.159-8.126 18.286-18.286 18.286v0z"></path>
	<path class="path5" d="M705.016 156.443c-10.159 0-18.286-8.126-18.286-18.286s8.126-18.286 18.286-18.286c10.159 0 18.286 8.126 18.286 18.286s-8.128 18.286-18.286 18.286v0zM705.016 97.524c-10.159 0-18.286-8.126-18.286-18.286s8.126-18.286 18.286-18.286c10.159 0 18.286 8.126 18.286 18.286s-8.128 18.286-18.286 18.286v0zM705.016 36.571c-10.159 0-18.286-8.126-18.286-18.286s8.126-18.286 18.286-18.286c10.159 0 18.286 8.126 18.286 18.286s-8.128 18.286-18.286 18.286v0z"></path>
	<path class="path6" d="M778.159 184.888c-4.064 0-10.159-2.031-12.19-4.064-4.064-4.064-6.095-8.126-6.095-12.19s2.031-10.159 6.095-12.19c6.095-6.095 18.286-6.095 26.412 0 6.095 8.126 6.095 18.286 0 26.412-6.095 0.002-10.159 2.033-14.222 2.033v0zM818.793 142.222c-4.064 0-10.159-2.031-12.19-6.095-6.095-6.095-6.095-18.286 0-26.412 6.095-6.095 18.286-6.095 26.412 0 6.095 6.095 6.095 18.286 0 26.412-4.062 4.064-8.126 6.095-14.222 6.095v0zM861.46 99.555c-4.064 0-10.159-2.031-12.19-6.095-6.095-6.095-6.095-18.286 0-26.412 8.126-6.095 18.286-6.095 26.412 0 4.064 4.064 6.095 8.126 6.095 12.19s-2.031 10.159-6.095 12.19c-4.062 6.095-8.126 8.126-14.222 8.126v0z"></path>
	<path class="path7" d="M916.317 262.095c-10.159 0-18.286-8.126-18.286-18.286s8.126-18.286 18.286-18.286c10.159 0 18.286 8.126 18.286 18.286s-10.158 18.286-18.286 18.286v0zM855.365 262.095c-10.159 0-18.286-8.126-18.286-18.286s8.126-18.286 18.286-18.286c10.159 0 18.286 8.126 18.286 18.286s-8.126 18.286-18.286 18.286v0zM796.445 262.095c-10.159 0-18.286-8.126-18.286-18.286s8.126-18.286 18.286-18.286c10.159 0 18.286 8.126 18.286 18.286-2.033 10.159-10.159 18.286-18.286 18.286v0z"></path>
</symbol>
<symbol id="icon-gauge" viewBox="0 0 2143 1024">
	<title>gauge</title>
	<path class="path1" d="M1109.521 852.958v0l-38.259-380.343-38.259 380.343c-31.509 13.503-51.762 45.012-51.762 81.021 0 49.512 40.509 90.021 90.021 90.021s90.021-40.509 90.021-90.021c0-36.009-22.506-67.518-51.762-81.021z"></path>
	<path class="path2" d="M1071.262 0c-576.142 0-1046.506 454.612-1071.262 1024h443.358c15.753-333.081 290.323-600.898 627.904-600.898s614.401 265.563 627.904 600.898h443.358c-27.006-569.388-495.12-1024-1071.262-1024z"></path>
</symbol>
<symbol id="icon-inspection" viewBox="0 0 640 1024">
	<title>inspection</title>
	<path class="path1" d="M512 153.6v38.4c0 35.814-28.186 64-64 64h-256c-35.814 0-64-28.186-64-64v-38.4c-70.465 0-128 57.665-128 128v614.4c0 70.465 57.535 128 128 128h384c70.465 0 128-57.535 128-128v-614.4c0-70.335-57.535-128-128-128zM247.079 791.014c-6.335 6.465-14.093 8.921-23.014 8.921s-16.679-2.586-23.014-8.921l-112.614-112.614 44.865-44.735 90.893 90.893 280.307-280.307 44.735 44.735-302.158 302.028z"></path>
	<path class="path2" d="M448 89.6h-38.4c0-49.907-39.693-89.6-89.6-89.6s-89.6 39.693-89.6 89.6h-38.4c-21.721 0-38.4 16.679-38.4 38.4v64c0 21.721 16.679 38.4 38.4 38.4h256c21.721 0 38.4-16.679 38.4-38.4v-64c0-21.721-16.679-38.4-38.4-38.4zM320 140.8c-28.186 0-51.2-23.014-51.2-51.2s23.014-51.2 51.2-51.2 51.2 23.014 51.2 51.2-23.014 51.2-51.2 51.2z"></path>
</symbol>
<symbol id="icon-ladder" viewBox="0 0 1024 1024">
	<title>ladder</title>
	<path class="path1" d="M242.358 9.631c-12.84 12.84-12.84 32.1 0 44.94l70.62 70.62-187.786 187.786-70.62-70.62c-12.84-12.84-32.1-12.84-44.94 0s-12.84 32.1 0 44.94l727.071 727.071c12.84 12.84 32.1 12.84 44.94 0s12.84-32.1 0-44.94l-70.62-70.62 187.786-187.786 70.62 70.62c12.84 12.84 32.1 12.84 44.94 0s12.84-32.1 0-44.94l-727.071-727.071c-11.235-12.842-32.1-12.842-44.94 0zM341.869 529.656l-62.595-62.595 187.786-187.786 62.595 62.595-187.786 187.786zM574.596 386.809l62.595 62.595-187.786 187.786-62.595-62.595 187.786-187.786zM494.344 682.131l187.786-187.786 62.595 62.595-187.786 187.788-62.595-62.597zM357.918 171.737l62.595 62.595-187.786 187.786-62.595-62.595c1.605-1.605 187.786-187.786 187.786-187.786zM666.082 852.263l-62.595-62.595 187.786-187.786 62.595 62.595-187.786 187.786z"></path>
</symbol>
<symbol id="icon-plugged" viewBox="0 0 344 1024">
	<title>plugged</title>
	<path class="path1" d="M291.814 547.168v-148.299c0-12.412-10.085-23.143-23.143-23.143-12.412 0-23.143 10.085-23.143 23.143v148.299h-148.299v-148.299c0-12.412-10.085-23.143-23.143-23.143-12.412 0-23.143 10.085-23.143 23.143v148.299h-50.941v91.152c0 82.618 58.699 152.178 136.663 167.564v140.541h68.784v-140.541c77.964-16.162 136.663-84.945 136.663-167.564v-91.152c1.422 0-50.295 0-50.295 0z"></path>
	<path class="path2" d="M343.531 476.832v-91.152c0-82.618-58.699-152.178-136.663-167.564v-140.541h-68.784v140.541c-77.964 16.162-136.663 84.945-136.663 167.564v91.152c334.352 0 2.327 0 342.109 0z"></path>
</symbol>
<symbol id="icon-pumper" viewBox="0 0 1087 1024">
	<title>pumper</title>
	<path class="path1" d="M188.247 3.641c-30.309 5.512-90.926 22.043-90.926 85.416v52.35h-96.437v247.981h96.437v349.928h-77.149v143.277h151.544v71.64c0 44.085 24.798 66.128 68.883 66.128s68.883-22.043 68.883-66.128v-71.64h468.407v71.64c0 44.085 24.798 68.883 66.128 68.883s71.64-24.798 71.64-68.883v-71.64h151.544v-143.277h-77.149v-352.684h96.437v-247.979h-96.437v-52.352c0-63.373-60.618-79.904-90.926-85.416l-710.878 2.757zM899.124 111.098v275.533h-322.375v-275.533h322.375zM188.247 111.098h322.373v275.533h-322.373v-275.533zM348.056 736.561h-162.565v-82.661h162.565v82.661zM684.207 736.561h-272.778v-225.938h272.778v225.938zM904.634 736.561h-162.565v-82.661h162.565v82.661z"></path>
</symbol>
<symbol id="icon-seatbelted" viewBox="0 0 850 1024">
	<title>seatbelted</title>
	<path class="path1" d="M491.421 204.828c31.32-21.619 48.228-55.433 48.228-91.604-0.001-62.64-50.585-113.224-113.224-113.224s-113.224 50.583-113.224 113.224c0 36.171 16.907 72.341 48.228 91.604v33.676c-139.831 67.49-188.752 99.503-205.659 391.085l369.326-374.179c-12.057-4.85-21.619-12.057-33.676-16.907v-33.675zM672.134 106.017l-147.038 149.393 62.64 38.526 134.981-137.336-50.583-50.583zM689.042 674.628c6.513-186.95-33.676-327.752-101.167-380.691l-347.015 349.372c57.789-14.413 120.429-21.619 183.070-21.619 86.753 0 192.77 26.469 265.112 52.939 0 24.114-9.701 64.996-12.057 72.341 0 0-168.657-48.228-250.56-48.228s-184.455 18.293-251.808 47.119l-2.079-0.97c0 0-13.443-36.586-15.937-65.55-2.356-36.171-0.693-49.89-0.693-49.89l-151.057 151.058c-2.356 2.356-2.356 2.356-4.85 4.85l53.078 48.228c33.676-36.171 72.341-64.996 120.429-86.754 19.263 74.697 55.433 161.45 110.867 264.973l7.207 12.057h118.074l-9.701-16.907c-84.397-149.117-91.743-204.55-84.397-226.309 21.619-2.356 89.11-4.85 113.224-4.85s91.604 4.85 113.224 4.85c7.207 21.619 0 77.053-84.397 226.446l-9.701 16.907h110.867l2.356-4.85c2.356-2.356 2.356-4.85 4.85-7.207 55.433-101.167 93.96-187.92 110.867-264.973 50.583 21.619 89.11 50.583 115.718 84.397l57.79-45.731c-36.032-45.872-93.96-84.399-161.311-111.007z"></path>
</symbol>
<symbol id="icon-seatbelts" viewBox="0 0 3860 1024">
	<title>seatbelts</title>
	<path class="path1" d="M2048.006 0v1024h984.615v-1024h-984.615zM2835.701 827.080h-590.768v-630.159h590.768v630.159z"></path>
	<path class="path2" d="M2363.083 315.076h354.462v393.847h-354.462v-393.847z"></path>
	<path class="path3" d="M1370.585 118.156l-200.862-118.156h-460.799v118.156h-708.924l39.385 393.847-39.385 393.847h708.924v118.156h472.618l196.92-118.156h433.232v-787.694h-441.11zM945.236 945.236h-157.541v-39.385l39.385-39.385v-708.924l-39.385-39.385v-39.385h157.541v866.465zM1654.159 748.309h-196.92v-472.618h196.92v472.618z"></path>
	<path class="path4" d="M3859.701 118.156h-630.153l-78.771-78.771h-78.771v945.229h78.771l78.771-78.764h630.153l-39.385-393.847z"></path>
</symbol>
<symbol id="icon-startflag" viewBox="0 0 1050 1024">
	<title>startflag</title>
	<path class="path1" d="M42.63 74.799c30.62-8.749 62.333 9.841 69.989 40.463l221.996 835.49c7.654 30.62-9.841 62.335-40.461 71.083s-62.333-9.841-69.989-40.463l-221.998-835.492c-8.749-30.62 9.843-62.333 40.463-71.081z"></path>
	<path class="path2" d="M164.015 141.506c15.31-25.151 153.1-238.399 390.405-88.58 238.399 149.82 392.594 256.989 495.39 77.645 0 0-25.153 145.444-69.989 221.995-43.743 76.55-181.533 182.628-352.131 137.79-157.475-41.556-274.488 22.966-321.511 165.13 0 0-131.229-474.611-142.165-513.98z"></path>
</symbol>
<symbol id="icon-steeringwheel" viewBox="0 0 1024 1024">
	<title>steeringwheel</title>
	<path class="path1" d="M433.483 544.269c0 43.025 35.495 78.52 78.522 78.52 43.025 0 78.522-35.495 78.522-78.52-1.076-44.101-36.571-78.522-78.522-78.522-43.026 0-78.522 35.495-78.522 78.522z"></path>
	<path class="path2" d="M512.003 0c-282.89 0-512 230.184-512 512-1.076 282.89 229.11 512 512 512s512-230.184 512-512c0-282.89-230.184-512-512-512zM911.062 478.655c1.076 10.757 1.076 22.588 1.076 34.421 0 100.255-37.028 190.981-97.424 261.716-29.711-34.297-45.635-77.063-45.635-127.262 0-61.303 55.897-127.446 141.931-169.397l0.052 0.522zM206.525 774.454c-61.311-69.916-97.882-162.419-97.882-262.454 0-10.757 0-22.588 1.076-33.345 0 0 2.152 0 2.152 0 0 1.974 0-1.974 0 0 84.974 40.875 140.907 107.564 140.907 168.875 0 49.478-15.059 92.505-45.176 126.924 0 0 0 0 0 0h-1.076zM274.29 836.841c-0.182-0.182-0.365-0.35-0.547-0.525 91.114-90.927 146.989-98.433 227.505-98.433 2.152 0 17.211 0 17.211 0 80.672 0 136.605 8.605 229.11 100.034 0 0 0 0 0 0-66.689 48.404-147.361 76.37-235.564 76.37-89.279 0-171.026-29.042-237.715-77.446zM129.897 386.97c53.419-159.030 203.374-275.105 381.030-275.105 178.236 0 329.669 114.685 382.635 275.576-60.1 45.98-108.464 30.941-179.341 8.389-51.63-16.135-115.091-34.419-202.218-34.419v0c-86.051 0-150.588 19.361-202.218 35.495-72.067 22.588-119.903 36.201-180.139-8.975zM621.719 543.194c0 61.311-49.478 110.789-110.789 110.789s-110.789-49.478-110.789-110.789c0-61.311 49.478-110.789 110.789-110.789 61.309 0 110.789 49.478 110.789 110.789z"></path>
</symbol>
<symbol id="icon-tire" viewBox="0 0 1023 1024">
	<title>tire</title>
	<path class="path1" d="M533.313 610.904l37.157 114.75c3.278 8.742 12.022 13.115 20.764 9.836 0 0 36.064-14.207 59.013-31.693s48.086-45.9 48.086-45.9c5.464-6.556 4.371-17.486-2.185-22.949l-98.357-71.035c-7.649-5.464-18.578-4.371-24.042 3.278 0 0-4.371 5.464-14.207 12.022-9.836 7.651-16.393 9.836-16.393 9.836-7.649 3.277-13.115 13.111-9.835 21.855zM320.206 657.896c0 0 25.135 29.507 48.086 45.9 22.949 16.393 59.013 31.693 59.013 31.693 8.744 3.278 17.486-1.093 20.764-9.836l37.157-114.75c3.278-8.742-2.185-18.578-10.929-21.857 0 0-6.556-2.185-16.393-9.836s-14.207-12.022-14.207-12.022c-5.464-7.651-16.393-8.742-24.042-3.278l-98.357 71.035c-5.462 5.465-6.555 16.395-1.091 22.951zM431.677 442.605l-98.357-71.035c-7.651-5.464-17.486-3.278-22.949 4.371 0 0-20.764 32.786-29.507 60.108s-12.022 65.571-12.022 65.571c-1.093 8.742 6.556 16.393 15.3 16.393h121.306c8.744 0 17.486-7.651 17.486-16.393 0 0 0-6.556 4.371-18.578 3.278-12.022 7.649-17.486 7.649-17.486 5.465-6.558 4.373-17.487-3.277-22.951zM586.862 299.442c3.278-8.742-2.185-17.486-10.929-19.671 0 0-37.157-8.742-66.664-8.742-28.415 0-66.664 8.742-66.664 8.742-8.744 2.185-14.207 10.929-10.929 19.671l37.157 114.75c3.278 8.742 12.022 14.207 21.857 12.022 0 0 6.556-2.185 18.578-2.185s18.578 2.185 18.578 2.185c8.744 2.185 18.578-3.278 21.857-12.022l37.16-114.75zM733.303 519.104c8.744 0 16.393-7.651 15.3-16.393 0 0-3.278-38.249-12.022-65.571s-29.507-60.108-29.507-60.108c-5.464-7.651-15.3-9.836-22.949-4.371l-98.357 71.035c-7.649 5.464-9.836 16.393-4.371 24.042 0 0 3.278 5.464 7.649 17.486s4.371 18.578 4.371 18.578c0 8.742 8.744 16.393 17.486 16.393l122.401-1.091zM739.861 675.383c-90.706 126.77-267.749 156.277-394.519 64.479-126.77-90.706-156.277-267.749-64.479-394.519 90.706-126.77 267.749-156.277 394.519-65.571 125.677 91.799 155.185 268.84 64.479 395.612zM1022.909 488.505c-1.093-28.415-5.464-62.293-12.022-90.706 0 0-1.093-5.464-7.649-7.651-5.464-2.185-9.836-3.278-13.115-4.371-1.093-1.093-2.185-2.185-3.278-3.278 0-2.185 0-3.278 1.093-4.371v0c2.185-2.185 5.464-5.464 8.744-9.836 0 0 4.371-4.371 2.185-10.929-7.649-27.322-20.764-59.013-34.971-84.15 0 0-3.278-5.464-8.744-5.464-6.556 0-9.836-1.093-13.115-1.093-1.093 0-3.278-1.093-4.371-2.185s-1.093-3.278 0-5.464v0c1.093-3.278 3.278-6.556 6.556-12.022 0 0 3.278-5.464 0-10.929-14.207-24.042-36.064-51.364-55.735-72.128 0 0-4.371-4.371-9.835-3.278s-9.836 2.185-13.115 2.185c-1.093 0-3.278 0-4.371-1.093s-2.185-3.278-1.093-4.371v0c1.093-3.278 1.093-7.651 2.185-13.115 0 0 1.093-6.556-3.278-9.836-20.764-19.671-48.086-40.435-73.221-55.735 0 0-5.464-3.278-10.929 0-5.464 2.185-9.836 4.371-12.022 6.556-1.093 1.093-3.278 1.093-4.371 0s-2.185-2.185-2.185-4.371v0c0-3.278 0-7.651-1.093-13.115 0 0 0-6.556-5.464-8.742-25.135-13.115-56.828-26.228-85.242-34.971 0 0-5.464-2.185-10.929 2.185-4.371 4.371-7.649 6.556-9.836 8.742-1.093 1.093-3.278 1.093-4.371 1.093-2.185 0-3.278-2.185-3.278-3.278v0c-1.093-3.278-2.185-7.651-4.371-13.115 0 0-2.185-5.464-7.649-7.651-27.322-6.556-61.2-10.927-90.708-12.020 0 0 0 0-1.093 0-2.185 0-6.556 1.093-8.744 5.464-3.278 5.464-5.464 8.742-7.649 10.929-1.093 1.093-2.185 2.185-4.371 2.185s-3.278-1.093-4.371-2.185v0c-2.185-2.185-4.371-6.556-7.649-10.929 0 0-3.278-5.464-9.836-5.464-28.415 1.093-62.293 5.464-90.706 12.022 0 0-5.464 1.093-7.649 7.651-2.185 5.464-3.278 9.836-4.371 13.115-1.093 1.093-2.185 2.185-3.278 3.278-2.185 0-3.278 0-4.371-1.093v0l-1.093-1.093c-1.093 0-1.093-1.093-2.185-2.185s-1.093-1.093-2.185-2.185c-1.093 0-1.093-1.093-2.185-1.093-1.093-1.093-2.185-2.185-3.278-2.185 0 0-4.371-4.371-10.929-2.185-27.322 7.651-59.013 20.764-84.15 34.971 0 0-5.464 3.278-5.464 8.742 0 6.556-1.093 9.836-1.093 13.115 0 1.093-1.093 3.278-2.185 4.371s-2.185 1.093-3.278 0c-3.278-1.093-6.556-3.278-13.115-6.556-1.093-1.093-3.278-1.093-4.371-1.093-2.185 0-4.371 0-7.651 1.093-16.393 9.836-33.878 22.949-51.364 37.157-7.651 6.556-15.3 12.022-21.857 18.578-1.093 1.093-2.185 2.185-2.185 4.371-1.093 2.185-1.093 4.371-1.093 6.556 1.093 6.556 2.185 12.022 3.278 15.3 0 1.093-1.093 2.185-1.093 3.278-1.093 1.093-3.278 1.093-4.371 1.093-3.278-1.093-7.651-1.093-13.115-2.185-6.556-1.093-9.836 3.278-9.836 3.278-20.764 20.764-41.528 48.086-55.735 72.128-3.278 5.464 0 10.929 0 10.929 2.185 5.464 4.371 8.742 6.556 12.022v0c1.093 1.093 1.093 3.278 0 5.464-1.093 1.093-2.185 2.185-4.371 2.185-3.278 0-7.651 0-13.115 1.093-6.556 0-8.742 5.464-8.742 5.464-14.207 25.135-27.322 57.92-34.971 84.15-2.185 5.464 2.185 10.929 2.185 10.929 4.371 4.371 6.556 7.651 8.742 9.836v0c1.093 1.093 2.185 3.278 1.093 4.371 0 2.185-2.185 3.278-3.278 3.278-3.278 1.093-6.556 2.185-13.115 4.371-5.464 2.185-7.651 7.651-7.651 7.651-6.561 28.413-12.025 62.291-12.025 90.704 0 6.556 5.464 9.836 5.464 9.836 2.185 1.093 3.278 2.185 5.464 3.278 1.093 0 1.093 1.093 2.185 1.093 1.093 1.093 2.185 1.093 3.278 2.185 0 0 1.093 0 1.093 1.093v0c1.093 1.093 2.185 2.185 2.185 4.371s-1.093 3.278-2.185 4.371-6.556 4.371-10.929 7.651c-5.464 3.278-5.464 9.836-5.464 9.836 0 29.507 4.371 63.386 12.022 90.706 1.093 5.464 7.651 7.651 7.651 7.651 5.464 2.185 9.836 3.278 13.115 4.371v0c2.185 0 3.278 2.185 3.278 3.278 0 2.185 0 3.278-1.093 4.371-2.185 2.185-4.371 5.464-8.742 9.836s-2.185 10.929-2.185 10.929c7.651 28.415 20.764 60.108 34.971 85.242 3.278 5.464 8.742 5.464 8.742 5.464 5.464 0 9.836 1.093 13.115 1.093v0c2.185 0 3.278 1.093 4.371 2.185s1.093 3.278 0 4.371-3.278 6.556-5.464 12.022c-3.278 5.464 0 10.929 0 10.929 15.3 25.135 36.064 52.457 55.735 73.221 4.371 4.371 9.836 3.278 9.836 3.278 5.464-1.093 9.836-2.185 13.115-2.185v0c2.185 0 3.278 0 4.371 1.093s2.185 3.278 1.093 4.371c-1.093 3.278-1.093 7.651-2.185 13.115-1.093 6.556 3.278 9.836 3.278 9.836 20.764 20.764 48.086 41.528 72.128 55.735 5.464 3.278 10.929 0 10.929 0 5.464-2.185 8.742-4.371 12.022-6.556v0c1.093-1.093 3.278-1.093 5.464 0 1.093 1.093 2.185 2.185 2.185 4.371 0 3.278 0 7.649 1.093 13.115 0 6.556 5.464 8.742 5.464 8.742 25.135 14.207 57.92 27.322 84.15 34.971 5.464 2.185 10.929-2.185 10.929-2.185 4.371-4.371 7.651-6.556 9.836-8.742v0c1.093-1.093 3.278-2.185 4.371-1.093 0 0 1.093 0 1.093 1.093v0l1.093 1.093c1.093 3.278 2.185 7.649 4.371 14.207 2.185 5.464 7.649 7.649 7.649 7.649 28.415 6.556 63.386 12.022 90.706 12.022 1.093 0 1.093 0 2.185 0s1.093 0 1.093 0v0c0 0 1.093 0 1.093-1.093v0c0 0 1.093 0 1.093-1.093v0c0 0 1.093 0 1.093-1.093v0c0 0 0 0 1.093-1.093v0c0 0 0 0 0-1.093v0-1.093c1.093-1.093 2.185-2.185 2.185-3.278 0 0 0 0 0-1.093 2.185-3.278 4.371-5.464 5.464-7.651v0c1.093-1.093 2.185-1.093 3.278-1.093 2.185 0 3.278 1.093 4.371 2.185 2.185 2.185 4.371 6.556 7.649 10.929 3.278 5.464 9.836 5.464 9.836 5.464 29.507 0 63.386-4.371 90.706-12.022 5.464-1.093 7.649-7.649 7.649-7.649 2.185-5.464 3.278-9.836 4.371-13.115v0c0-2.185 2.185-3.278 3.278-3.278 2.185 0 3.278 0 4.371 1.093 2.185 2.185 5.464 4.371 9.836 8.742s10.929 2.185 10.929 2.185c28.415-7.649 60.108-20.764 85.242-34.971 5.464-3.278 5.464-8.742 5.464-8.742 0-5.464 1.093-9.835 1.093-13.115v0c0-2.185 1.093-3.278 2.185-4.371s3.278-1.093 4.371 0 6.556 3.278 12.022 6.556c1.093 1.093 3.278 1.093 4.371 1.093 2.185 0 4.371 0 7.649-1.093 16.393-9.836 33.878-22.949 51.364-37.157 7.649-6.556 15.3-13.115 21.857-18.578 1.093-1.093 2.185-2.185 2.185-4.371 1.093-2.185 1.093-4.371 1.093-6.556-1.093-5.464-2.185-9.836-2.185-13.115 0-1.093 0-3.278 1.093-4.371s3.278-2.185 4.371-1.093v0c3.278 1.093 7.649 1.093 13.115 2.185 0 0 6.556 1.093 9.836-3.278 19.671-20.764 40.435-48.086 55.735-73.221 0 0 3.278-5.464 0-10.929-2.185-5.464-4.371-9.836-5.464-12.022-1.093-1.093-1.093-3.278 0-4.371s2.185-2.185 4.371-2.185v0 0c0 0 0 0 1.093 0s2.185 0 3.278 0 5.464 0 8.742-1.093c0 0 6.556 0 8.744-5.464 13.115-25.135 26.228-56.828 34.971-85.242 0 0 2.185-5.464-2.185-10.929-4.371-4.371-6.556-7.651-8.744-9.836-1.093-1.093-1.093-3.278-1.093-4.371 0-2.185 2.185-3.278 3.278-3.278v0c3.278-1.093 7.649-2.185 13.115-4.371 0 0 5.464-2.185 7.649-7.651 6.556-27.322 10.929-61.2 12.022-90.706 0 0 0-6.556-5.464-9.836-5.464-3.278-8.742-5.464-10.929-7.651-1.093-1.093-2.185-2.185-2.185-4.371s1.093-3.278 2.185-4.371v0c2.185-2.185 6.556-4.371 10.929-7.651 2.194 0 6.565-3.278 6.565-9.835z"></path>
</symbol>
<symbol id="icon-toggle-on" viewBox="0 0 2730 1024">
	<title>toggle-on</title>
	<path class="path1" d="M2217.6 0h-1705.6c-291.2 0-512 220.8-512 512s220.8 512 512 512h1705.6c291.2 0 512-220.8 512-512s-220.8-512-512-512zM1068.8 662.4c-35.2 48-89.6 70.4-156.8 70.4-64 0-112-22.4-150.4-64-32-41.6-48-92.8-48-153.6 0-54.4 12.8-102.4 41.6-144 35.2-51.2 89.6-76.8 156.8-76.8 73.6 0 128 22.4 163.2 70.4 28.8 35.2 41.6 83.2 41.6 140.8 0 64-16 115.2-48 156.8zM1507.2 723.2h-64l-208-332.8v332.8h-51.2v-412.8h64l204.8 332.8v-332.8h54.4v412.8zM2217.6 854.4c-188.8 0-342.4-153.6-342.4-342.4s153.6-342.4 342.4-342.4c188.8 0 342.4 153.6 342.4 342.4s-153.6 342.4-342.4 342.4z"></path>
	<path class="path2" d="M915.2 348.8c-41.6 0-76.8 16-105.6 44.8s-41.6 73.6-41.6 131.2c0 44.8 12.8 83.2 35.2 115.2s60.8 48 112 48c48 0 86.4-19.2 105.6-54.4s32-76.8 32-121.6c0-48-12.8-86.4-38.4-118.4s-54.4-44.8-99.2-44.8z"></path>
</symbol>
<symbol id="icon-tools" viewBox="0 0 1028 1024">
	<title>tools</title>
	<path class="path1" d="M1007.718 946.205c10.855-10.855 12.664-48.849 0-61.513s-157.399-159.209-157.399-159.209l-30.756-30.756c0 0 12.664-50.657 0-61.513-10.855-12.664-19.901-19.901-19.901-19.901s-5.427-5.427-10.855-5.427c-3.618 0-9.045 1.81-14.474 7.237-14.474 12.664-48.849 48.849-48.849 48.849l-434.204-437.824-47.039-77.795-61.513-61.513-119.407-66.938-39.802 39.802 65.131 119.407 61.513 61.513 77.795 47.039 434.206 437.824c0 0-34.375 34.375-48.849 48.849s-1.81 25.328-1.81 25.328 7.237 7.237 19.901 19.901c3.618 3.618 12.664 5.427 21.711 5.427 18.092 0 39.802-5.427 39.802-5.427l30.756 30.756c0 0 144.735 146.545 157.399 159.209 5.427 5.427 18.092 9.045 30.756 9.045s25.328-3.618 30.756-9.045c10.855-10.855 30.756-30.756 30.756-30.756s21.711-21.713 34.375-32.568z"></path>
	<path class="path2" d="M1018.573 173.683l-123.025 123.024-135.689-28.948-28.948-135.689 123.025-123.024c-19.901-5.427-39.802-9.045-59.703-9.045-128.452 0-233.385 103.125-233.385 233.385 0 43.42 12.664 83.222 32.565 117.597l-52.466 52.466 92.269 92.269 54.276-54.276c32.565 16.282 66.94 27.138 106.741 27.138 128.452 0 233.385-103.125 233.385-233.385 0-21.709-3.618-41.61-9.045-61.511z"></path>
	<path class="path3" d="M403.449 537.329l-52.466 52.466c-34.375-19.901-74.177-32.565-117.597-32.565-128.454 0-233.387 103.125-233.387 233.385 0 19.901 3.618 39.802 9.045 59.703l123.025-123.024 135.689 28.948 28.948 135.689-123.025 123.025c19.901 5.427 39.802 9.045 59.703 9.045 128.452 0 233.385-103.125 233.385-233.385 0-37.993-10.855-74.177-27.138-106.741l54.276-54.276-90.459-92.271z"></path>
</symbol>
<symbol id="icon-unplugged" viewBox="0 0 344 1024">
	<title>unplugged</title>
	<path class="path1" d="M291.814 624.743v-148.299c0-12.412-10.085-23.143-23.143-23.143-12.412 0-23.143 10.085-23.143 23.143v148.299h-148.299v-148.299c0-12.412-10.085-23.143-23.143-23.143-12.412 0-23.143 10.085-23.143 23.143v148.299h-50.941v91.152c0 82.618 58.699 152.178 136.663 167.564v140.541h68.784v-140.541c77.964-16.162 136.663-84.945 136.663-167.564v-91.152c1.422 0-50.295 0-50.295 0z"></path>
	<path class="path2" d="M343.531 399.257v-91.152c0-82.618-58.699-152.178-136.663-167.564v-140.541h-68.784v140.541c-77.964 16.162-136.663 84.945-136.663 167.564v91.152c334.352 0 2.327 0 342.109 0z"></path>
</symbol>
</defs>
</svg>
